<svg width="1463" height="285" viewBox="0 0 1463 285" fill="none" xmlns="http://www.w3.org/2000/svg">
<path d="M353.64 11.4H526.6V64.7357H414.781V119.496H525.574V171.204H414.781V226.779H526.6V280.114H353.64V11.4Z" fill="#E5E8CA"/>
<path d="M542.267 280.114V112.982H604.639V280.114H542.267ZM574.274 78.5786C564.426 78.5786 556.082 75.1857 549.243 68.4C542.404 61.4786 538.984 53.2679 538.984 43.7679C538.984 34.2679 542.404 26.0571 549.243 19.1357C556.219 12.0786 564.562 8.54999 574.274 8.54999C580.703 8.54999 586.584 10.1786 591.919 13.4357C597.253 16.5571 601.562 20.7643 604.845 26.0571C608.127 31.35 609.769 37.2536 609.769 43.7679C609.769 53.2679 606.281 61.4786 599.305 68.4C592.329 75.1857 583.985 78.5786 574.274 78.5786Z" fill="#E5E8CA"/>
<path d="M729.679 112.982H800.258L720.857 192.782L808.465 280.114H736.245L671.205 212.936V280.114H608.833V0H671.205V171.204L729.679 112.982Z" fill="#E5E8CA"/>
<path d="M833.974 209.679C834.384 215.65 836.299 220.943 839.719 225.557C843.138 230.171 847.857 233.836 853.876 236.55C860.031 239.129 867.28 240.418 875.624 240.418C883.557 240.418 890.67 239.604 896.962 237.975C903.391 236.346 908.93 234.311 913.581 231.868C918.368 229.425 922.061 226.914 924.66 224.336L948.87 262.607C945.451 266.271 940.595 269.868 934.303 273.396C928.148 276.789 920.01 279.571 909.888 281.743C899.766 283.914 886.977 285 871.52 285C852.918 285 836.368 281.539 821.869 274.618C807.37 267.696 795.949 257.518 787.605 244.082C779.261 230.646 775.089 214.225 775.089 194.818C775.089 178.532 778.646 163.875 785.758 150.846C793.008 137.682 803.472 127.3 817.15 119.7C830.828 111.964 847.31 108.096 866.596 108.096C884.925 108.096 900.792 111.421 914.196 118.071C927.738 124.721 938.133 134.629 945.382 147.793C952.769 160.821 956.462 177.107 956.462 196.65C956.462 197.736 956.393 199.907 956.257 203.164C956.257 206.421 956.12 208.593 955.846 209.679H833.974ZM897.783 177.311C897.646 172.968 896.483 168.693 894.295 164.486C892.106 160.143 888.823 156.614 884.446 153.9C880.069 151.05 874.461 149.625 867.622 149.625C860.783 149.625 854.97 150.982 850.183 153.696C845.532 156.275 841.976 159.668 839.514 163.875C837.052 168.082 835.684 172.561 835.41 177.311H897.783Z" fill="#E5E8CA"/>
<path d="M1071.79 108.096C1083.55 108.096 1095.04 110.471 1106.26 115.221C1117.47 119.971 1126.71 127.504 1133.96 137.818C1141.2 147.996 1144.83 161.432 1144.83 178.125V280.114H1082.25V188.304C1082.25 176.361 1079.38 167.404 1073.63 161.432C1067.89 155.325 1060.37 152.271 1051.07 152.271C1044.91 152.271 1039.1 153.9 1033.63 157.157C1028.29 160.279 1023.91 164.757 1020.49 170.593C1017.21 176.293 1015.57 182.875 1015.57 190.339V280.114H953.198V112.982H1015.57V137.614C1017.21 133.136 1020.63 128.657 1025.83 124.179C1031.16 119.564 1037.8 115.764 1045.73 112.779C1053.8 109.657 1062.49 108.096 1071.79 108.096Z" fill="#E5E8CA"/>
<path d="M1197.9 209.679C1198.31 215.65 1200.22 220.943 1203.64 225.557C1207.06 230.171 1211.78 233.836 1217.8 236.55C1223.96 239.129 1231.2 240.418 1239.55 240.418C1247.48 240.418 1254.59 239.604 1260.89 237.975C1267.31 236.346 1272.85 234.311 1277.51 231.868C1282.29 229.425 1285.99 226.914 1288.58 224.336L1312.79 262.607C1309.38 266.271 1304.52 269.868 1298.23 273.396C1292.07 276.789 1283.93 279.571 1273.81 281.743C1263.69 283.914 1250.9 285 1235.44 285C1216.84 285 1200.29 281.539 1185.79 274.618C1171.29 267.696 1159.87 257.518 1151.53 244.082C1143.19 230.646 1139.01 214.225 1139.01 194.818C1139.01 178.532 1142.57 163.875 1149.68 150.846C1156.93 137.682 1167.4 127.3 1181.07 119.7C1194.75 111.964 1211.23 108.096 1230.52 108.096C1248.85 108.096 1264.72 111.421 1278.12 118.071C1291.66 124.721 1302.06 134.629 1309.31 147.793C1316.69 160.821 1320.39 177.107 1320.39 196.65C1320.39 197.736 1320.32 199.907 1320.18 203.164C1320.18 206.421 1320.04 208.593 1319.77 209.679H1197.9ZM1261.71 177.311C1261.57 172.968 1260.41 168.693 1258.22 164.486C1256.03 160.143 1252.75 156.614 1248.37 153.9C1243.99 151.05 1238.39 149.625 1231.55 149.625C1224.71 149.625 1218.89 150.982 1214.11 153.696C1209.46 156.275 1205.9 159.668 1203.44 163.875C1200.98 168.082 1199.61 172.561 1199.33 177.311H1261.71Z" fill="#E5E8CA"/>
<path d="M1395.29 108.096C1406.37 108.096 1416.49 109.046 1425.66 110.946C1434.82 112.711 1442.48 114.746 1448.64 117.054C1454.93 119.361 1458.96 121.261 1460.74 122.754L1440.43 159.193C1437.83 157.293 1432.98 154.85 1425.86 151.864C1418.89 148.879 1411.09 147.386 1402.47 147.386C1395.91 147.386 1390.37 148.404 1385.86 150.439C1381.34 152.339 1379.08 155.393 1379.08 159.6C1379.08 163.807 1381.55 167.2 1386.47 169.779C1391.53 172.221 1398.78 174.393 1408.22 176.293C1416.43 177.921 1424.77 180.5 1433.25 184.029C1441.73 187.557 1448.77 192.782 1454.38 199.704C1460.13 206.489 1463 215.582 1463 226.982C1463 238.654 1460.47 248.289 1455.41 255.889C1450.35 263.489 1443.65 269.393 1435.3 273.6C1426.96 277.807 1417.93 280.725 1408.22 282.354C1398.51 284.118 1389.07 285 1379.91 285C1367.05 285 1355.83 283.846 1346.26 281.539C1336.82 279.232 1329.16 276.586 1323.28 273.6C1317.4 270.614 1313.29 268.239 1310.97 266.475L1331.07 225.761C1334.63 228.746 1340.44 232.139 1348.51 235.939C1356.58 239.604 1365.13 241.436 1374.16 241.436C1382.91 241.436 1389.69 240.146 1394.47 237.568C1399.26 234.989 1401.65 231.596 1401.65 227.389C1401.65 223.996 1400.49 221.282 1398.17 219.246C1395.84 217.211 1392.56 215.446 1388.32 213.954C1384.08 212.461 1378.95 211.104 1372.93 209.882C1367.46 208.796 1361.64 207.1 1355.49 204.793C1349.33 202.486 1343.52 199.364 1338.05 195.429C1332.58 191.357 1328.13 186.268 1324.71 180.161C1321.29 174.054 1319.58 166.657 1319.58 157.971C1319.58 146.843 1323.21 137.614 1330.46 130.286C1337.71 122.957 1347.08 117.461 1358.57 113.796C1370.06 109.996 1382.3 108.096 1395.29 108.096Z" fill="#E5E8CA"/>
<path d="M0 9.74599H355.846V101.989H0V9.74599Z" fill="#568A99"/>
<path d="M0 101.989H355.846V191.052H0V101.989Z" fill="#E9A716"/>
<path d="M0 191.052H355.846V280.114H0V191.052Z" fill="#C7481D"/>
</svg>
