<svg width="326" height="102" viewBox="0 0 326 102" fill="none" xmlns="http://www.w3.org/2000/svg">
<path d="M78.3752 2.54957H116.695V14.4779H91.9213V26.725H116.468V38.2891H91.9213V50.7183H116.695V62.6467H78.3752V2.54957Z" fill="#E5E8CA"/>
<path d="M120.166 62.6467V25.2681H133.985V62.6467H120.166ZM127.258 17.5738C125.076 17.5738 123.227 16.815 121.712 15.2974C120.197 13.7495 119.439 11.9132 119.439 9.78854C119.439 7.6639 120.197 5.82759 121.712 4.27964C123.258 2.70133 125.106 1.91218 127.258 1.91218C128.682 1.91218 129.985 2.2764 131.167 3.00485C132.349 3.70295 133.304 4.64387 134.031 5.8276C134.758 7.01132 135.122 8.33164 135.122 9.78854C135.122 11.9132 134.349 13.7495 132.804 15.2974C131.258 16.815 129.409 17.5738 127.258 17.5738Z" fill="#E5E8CA"/>
<path d="M161.689 25.2681H177.326L159.734 43.1151L179.144 62.6467H163.143L148.733 47.6224V62.6467H134.914V0H148.733V38.2891L161.689 25.2681Z" fill="#E5E8CA"/>
<path d="M184.796 46.8939C184.887 48.2294 185.311 49.4132 186.068 50.4451C186.826 51.4771 187.872 52.2966 189.205 52.9036C190.569 53.4803 192.175 53.7687 194.023 53.7687C195.781 53.7687 197.357 53.5866 198.751 53.2223C200.175 52.8581 201.403 52.4028 202.433 51.8565C203.494 51.3102 204.312 50.7486 204.888 50.172L210.252 58.7312C209.494 59.5507 208.418 60.3551 207.024 61.1442C205.66 61.903 203.857 62.5252 201.615 63.0109C199.372 63.4965 196.539 63.7393 193.114 63.7393C188.993 63.7393 185.326 62.9654 182.114 61.4174C178.901 59.8694 176.371 57.593 174.522 54.5882C172.674 51.5833 171.75 47.9107 171.75 43.5704C171.75 39.9281 172.537 36.6501 174.113 33.7363C175.719 30.7922 178.038 28.4702 181.068 26.7705C184.099 25.0405 187.75 24.1754 192.023 24.1754C196.084 24.1754 199.6 24.919 202.569 26.4063C205.57 27.8935 207.873 30.1092 209.479 33.0534C211.115 35.9672 211.934 39.6094 211.934 43.9801C211.934 44.223 211.918 44.7086 211.888 45.437C211.888 46.1655 211.858 46.6511 211.797 46.8939H184.796ZM198.933 39.655C198.903 38.6837 198.645 37.7276 198.16 36.7867C197.675 35.8154 196.948 35.0263 195.978 34.4192C195.008 33.7818 193.766 33.4631 192.251 33.4631C190.735 33.4631 189.447 33.7667 188.387 34.3737C187.356 34.9504 186.569 35.7092 186.023 36.6501C185.478 37.591 185.174 38.5926 185.114 39.655H198.933Z" fill="#E5E8CA"/>
<path d="M237.485 24.1754C240.091 24.1754 242.636 24.7066 245.121 25.7689C247.606 26.8312 249.652 28.5158 251.258 30.8225C252.864 33.0989 253.667 36.1038 253.667 39.8371V62.6467H239.803V42.1135C239.803 39.4425 239.167 37.4393 237.894 36.1038C236.621 34.7379 234.954 34.055 232.893 34.055C231.53 34.055 230.242 34.4192 229.03 35.1477C227.848 35.8458 226.878 36.8474 226.12 38.1525C225.393 39.4273 225.029 40.8994 225.029 42.5688V62.6467H211.21V25.2681H225.029V30.777C225.393 29.7754 226.151 28.7738 227.302 27.7721C228.484 26.7402 229.954 25.8903 231.712 25.2226C233.5 24.5245 235.424 24.1754 237.485 24.1754Z" fill="#E5E8CA"/>
<path d="M265.425 46.8939C265.516 48.2294 265.94 49.4132 266.698 50.4451C267.455 51.4771 268.501 52.2966 269.834 52.9036C271.198 53.4803 272.804 53.7687 274.653 53.7687C276.411 53.7687 277.986 53.5866 279.38 53.2223C280.805 52.8581 282.032 52.4028 283.062 51.8565C284.123 51.3102 284.941 50.7486 285.517 50.172L290.881 58.7312C290.123 59.5507 289.048 60.3551 287.654 61.1442C286.29 61.903 284.487 62.5252 282.244 63.0109C280.002 63.4965 277.168 63.7393 273.744 63.7393C269.622 63.7393 265.955 62.9654 262.743 61.4174C259.531 59.8694 257 57.593 255.152 54.5882C253.303 51.5833 252.379 47.9107 252.379 43.5704C252.379 39.9281 253.167 36.6501 254.743 33.7363C256.349 30.7922 258.667 28.4702 261.698 26.7705C264.728 25.0405 268.38 24.1754 272.653 24.1754C276.714 24.1754 280.229 24.919 283.199 26.4063C286.199 27.8935 288.502 30.1092 290.108 33.0534C291.745 35.9672 292.563 39.6094 292.563 43.9801C292.563 44.223 292.548 44.7086 292.517 45.437C292.517 46.1655 292.487 46.6511 292.427 46.8939H265.425ZM279.562 39.655C279.532 38.6837 279.274 37.7276 278.789 36.7867C278.305 35.8154 277.577 35.0263 276.607 34.4192C275.638 33.7818 274.395 33.4631 272.88 33.4631C271.365 33.4631 270.077 33.7667 269.016 34.3737C267.986 34.9504 267.198 35.7092 266.652 36.6501C266.107 37.591 265.804 38.5926 265.743 39.655H279.562Z" fill="#E5E8CA"/>
<path d="M309.159 24.1754C311.614 24.1754 313.856 24.3879 315.887 24.8128C317.917 25.2074 319.614 25.6627 320.978 26.1787C322.372 26.6946 323.266 27.1196 323.66 27.4534L319.159 35.603C318.584 35.178 317.508 34.6317 315.932 33.964C314.387 33.2962 312.659 32.9623 310.75 32.9623C309.295 32.9623 308.068 33.19 307.068 33.6453C306.068 34.0702 305.568 34.7531 305.568 35.694C305.568 36.6349 306.113 37.3937 307.204 37.9704C308.326 38.5168 309.932 39.0024 312.023 39.4273C313.841 39.7916 315.69 40.3682 317.569 41.1574C319.447 41.9466 321.008 43.1151 322.251 44.6631C323.523 46.1807 324.16 48.2142 324.16 50.7638C324.16 53.3741 323.599 55.5291 322.478 57.2288C321.357 58.9285 319.872 60.2488 318.023 61.1898C316.174 62.1307 314.174 62.7832 312.023 63.1475C309.871 63.542 307.78 63.7393 305.75 63.7393C302.901 63.7393 300.416 63.4813 298.295 62.9654C296.204 62.4494 294.507 61.8575 293.204 61.1898C291.9 60.522 290.991 59.9908 290.476 59.5963L294.931 50.4907C295.719 51.1584 297.007 51.9172 298.795 52.7671C300.583 53.5866 302.477 53.9963 304.477 53.9963C306.416 53.9963 307.916 53.708 308.977 53.1313C310.038 52.5546 310.568 51.7958 310.568 50.8549C310.568 50.0961 310.311 49.489 309.795 49.0338C309.28 48.5785 308.553 48.1839 307.613 47.85C306.674 47.5162 305.538 47.2126 304.204 46.9395C302.992 46.6966 301.704 46.3172 300.34 45.8013C298.977 45.2853 297.689 44.5872 296.476 43.707C295.264 42.7964 294.279 41.6582 293.522 40.2924C292.764 38.9265 292.385 37.2723 292.385 35.3298C292.385 32.8409 293.188 30.777 294.795 29.138C296.401 27.499 298.477 26.2697 301.022 25.4502C303.568 24.6003 306.28 24.1754 309.159 24.1754Z" fill="#E5E8CA"/>
<path d="M0.0243337 2.17966H78.8638V22.8096H0.0243337V2.17966Z" fill="#568A99"/>
<path d="M0.0243337 22.8096H78.8638V42.7281H0.0243337V22.8096Z" fill="#E9A716"/>
<path d="M0.0243337 42.7281H78.8638V62.6467H0.0243337V42.7281Z" fill="#C7481D"/>
<path d="M32.2086 102C31.3449 102 30.5418 101.886 29.7994 101.659C29.0721 101.431 28.4054 101.089 27.7993 100.634C27.2083 100.164 26.678 99.587 26.2083 98.9041L27.8902 96.9691C28.6327 98.0315 29.3448 98.7675 30.0267 99.1773C30.7085 99.587 31.5192 99.7919 32.4586 99.7919C33.0344 99.7919 33.5572 99.7008 34.0269 99.5187C34.4966 99.3366 34.8678 99.0862 35.1406 98.7675C35.4133 98.4488 35.5497 98.0846 35.5497 97.6748C35.5497 97.4017 35.5042 97.1437 35.4133 96.9009C35.3224 96.658 35.1785 96.438 34.9815 96.2407C34.7997 96.0434 34.5572 95.8613 34.2542 95.6944C33.9663 95.5274 33.6253 95.3833 33.2314 95.2618C32.8374 95.1253 32.3829 95.0114 31.8677 94.9204C31.0494 94.7534 30.3373 94.5334 29.7312 94.2602C29.1251 93.9871 28.6175 93.6456 28.2084 93.2358C27.7993 92.8261 27.4962 92.3632 27.2992 91.8472C27.1023 91.3161 27.0038 90.7242 27.0038 90.0716C27.0038 89.4342 27.1401 88.8424 27.4129 88.296C27.7008 87.7497 28.0872 87.2792 28.572 86.8847C29.0721 86.4749 29.6554 86.1638 30.3221 85.9513C30.9888 85.7237 31.7086 85.6099 32.4813 85.6099C33.2996 85.6099 34.0496 85.7161 34.7315 85.9286C35.4133 86.141 36.0194 86.4597 36.5497 86.8847C37.0801 87.2944 37.5195 87.8028 37.868 88.4099L36.1406 90.1172C35.8376 89.6164 35.4967 89.199 35.1179 88.8651C34.739 88.5161 34.3224 88.2581 33.8678 88.0912C33.4132 87.9091 32.9283 87.818 32.4132 87.818C31.8222 87.818 31.307 87.9091 30.8676 88.0912C30.4282 88.2733 30.0797 88.5313 29.8221 88.8651C29.5797 89.1838 29.4585 89.5632 29.4585 90.0033C29.4585 90.322 29.5191 90.618 29.6403 90.8911C29.7615 91.1491 29.9433 91.3844 30.1858 91.5968C30.4434 91.7941 30.7843 91.9762 31.2085 92.1432C31.6328 92.2949 32.1404 92.4315 32.7314 92.5529C33.5647 92.735 34.3072 92.9703 34.9588 93.2586C35.6103 93.5318 36.1634 93.8581 36.6179 94.2375C37.0725 94.6169 37.4134 95.0418 37.6407 95.5123C37.8832 95.9827 38.0044 96.4911 38.0044 97.0374C38.0044 98.0542 37.7695 98.9344 37.2998 99.6781C36.8301 100.422 36.1634 100.998 35.2997 101.408C34.436 101.803 33.4056 102 32.2086 102Z" fill="#E5E8CA"/>
<path d="M49.5055 102C48.3843 102 47.3463 101.795 46.3917 101.385C45.4523 100.976 44.6265 100.407 43.9143 99.6781C43.2173 98.9344 42.6718 98.0694 42.2779 97.083C41.8991 96.0813 41.7097 94.9887 41.7097 93.8049C41.7097 92.6212 41.8991 91.5361 42.2779 90.5497C42.6718 89.5481 43.2173 88.683 43.9143 87.9546C44.6265 87.211 45.4523 86.6343 46.3917 86.2245C47.3463 85.8148 48.3843 85.6099 49.5055 85.6099C50.6268 85.6099 51.6572 85.8148 52.5966 86.2245C53.5512 86.6343 54.377 87.211 55.074 87.9546C55.7862 88.6982 56.3317 89.5708 56.7105 90.5724C57.1044 91.5589 57.3014 92.6364 57.3014 93.8049C57.3014 94.9735 57.1044 96.0586 56.7105 97.0602C56.3317 98.0466 55.7862 98.9117 55.074 99.6553C54.377 100.399 53.5512 100.976 52.5966 101.385C51.6572 101.795 50.6268 102 49.5055 102ZM49.5055 99.6098C50.2783 99.6098 50.9829 99.4656 51.6193 99.1773C52.2708 98.8889 52.8315 98.4867 53.3012 97.9708C53.7709 97.4396 54.1346 96.825 54.3922 96.1269C54.6649 95.4136 54.8013 94.6396 54.8013 93.8049C54.8013 92.9703 54.6649 92.2039 54.3922 91.5058C54.1346 90.7925 53.7709 90.1779 53.3012 89.6619C52.8315 89.1307 52.2708 88.721 51.6193 88.4326C50.9829 88.1443 50.2783 88.0001 49.5055 88.0001C48.7328 88.0001 48.0206 88.1443 47.369 88.4326C46.7326 88.721 46.172 89.1231 45.6871 89.6391C45.2174 90.1551 44.8538 90.7697 44.5962 91.483C44.3386 92.1811 44.2098 92.9551 44.2098 93.8049C44.2098 94.6396 44.3386 95.4136 44.5962 96.1269C44.8538 96.8402 45.2174 97.4548 45.6871 97.9708C46.172 98.4867 46.7326 98.8889 47.369 99.1773C48.0206 99.4656 48.7328 99.6098 49.5055 99.6098Z" fill="#E5E8CA"/>
<path d="M61.9886 101.772V85.8375H64.4433V101.772H61.9886ZM63.0796 94.9887V92.6212H71.2846V94.9887H63.0796ZM63.0796 88.205V85.8375H72.3074V88.205H63.0796Z" fill="#E5E8CA"/>
<path d="M80.3808 101.772V88.205H75.926V85.8375H87.4266V88.205H82.8355V101.772H80.3808Z" fill="#E5E8CA"/>
<path d="M95.4256 101.772L90.3572 85.8375H92.9709L96.0393 95.8082C96.1302 96.051 96.2135 96.3393 96.2893 96.6732C96.3651 96.9919 96.4332 97.3182 96.4939 97.6521C96.5545 97.9859 96.6075 98.297 96.653 98.5854C96.7136 98.8737 96.7666 99.109 96.8121 99.2911L96.1529 99.2683C96.3802 98.464 96.5545 97.8418 96.6757 97.4017C96.8121 96.9616 96.9181 96.6277 96.9939 96.4C97.0697 96.1572 97.1378 95.9524 97.1984 95.7854L100.062 88.592H102.267L105.04 95.7854C105.191 96.1496 105.32 96.5139 105.426 96.8781C105.547 97.2271 105.653 97.5838 105.744 97.948C105.835 98.297 105.934 98.6689 106.04 99.0634L105.449 99.2228C105.525 98.813 105.578 98.4943 105.608 98.2667C105.653 98.0239 105.691 97.8266 105.722 97.6748C105.752 97.5231 105.782 97.3789 105.813 97.2423C105.843 97.0906 105.888 96.9008 105.949 96.6732C106.025 96.4456 106.123 96.1345 106.244 95.7399L109.267 85.8375H111.904L106.835 101.772H105.131L100.926 91.8017L101.13 91.8928L97.0848 101.772H95.4256Z" fill="#E5E8CA"/>
<path d="M113.473 101.772L119.633 85.8375H122.133L128.247 101.772H125.633L121.996 92.1659C121.951 92.0597 121.86 91.8017 121.724 91.392C121.603 90.9822 121.459 90.5269 121.292 90.0261C121.125 89.5253 120.974 89.07 120.837 88.6603C120.701 88.2353 120.61 87.9622 120.565 87.8408L121.087 87.818C120.996 88.076 120.883 88.4023 120.746 88.7969C120.625 89.1914 120.489 89.6088 120.337 90.0489C120.201 90.489 120.065 90.9063 119.928 91.3009C119.792 91.6803 119.678 91.999 119.587 92.257L115.973 101.772H113.473ZM116.201 97.8114L117.11 95.444H124.338L125.383 97.8114H116.201Z" fill="#E5E8CA"/>
<path d="M132.411 101.772V85.8375H139.184C140.093 85.8375 140.926 86.0652 141.684 86.5204C142.457 86.9606 143.07 87.5676 143.525 88.3416C143.979 89.1004 144.207 89.9578 144.207 90.9139C144.207 91.7789 143.979 92.5833 143.525 93.3269C143.07 94.0705 142.464 94.67 141.707 95.1253C140.949 95.5654 140.108 95.7854 139.184 95.7854H134.865V101.772H132.411ZM141.866 101.772L137.82 94.5789L140.343 94.0098L144.843 101.795L141.866 101.772ZM134.865 93.418H139.411C139.85 93.418 140.244 93.3117 140.593 93.0993C140.941 92.8716 141.214 92.5681 141.411 92.1887C141.608 91.7941 141.707 91.3616 141.707 90.8911C141.707 90.36 141.578 89.8971 141.32 89.5025C141.078 89.0928 140.729 88.7741 140.275 88.5464C139.835 88.3188 139.335 88.205 138.775 88.205H134.865V93.418Z" fill="#E5E8CA"/>
<path d="M149.578 101.772V85.8375H159.601V88.205H152.032V99.4049H159.601V101.772H149.578ZM150.691 94.7838V92.4163H158.351V94.7838H150.691Z" fill="#E5E8CA"/>
<path d="M183.478 101.772L181.41 99.5642L181.046 99.1545L177.114 94.761C176.735 94.3361 176.372 93.9036 176.023 93.4635C175.675 93.0082 175.364 92.5605 175.091 92.1204C174.834 91.6803 174.621 91.2554 174.455 90.8456C174.303 90.4207 174.227 90.0261 174.227 89.6619C174.227 88.8879 174.424 88.1974 174.818 87.5904C175.228 86.9681 175.781 86.4825 176.478 86.1335C177.19 85.7844 178.008 85.6099 178.932 85.6099C179.614 85.6099 180.251 85.7389 180.841 85.9969C181.432 86.2397 181.94 86.5887 182.364 87.044C182.804 87.4841 183.122 88.0001 183.319 88.592L181.546 89.7302C181.258 89.0321 180.902 88.5237 180.478 88.205C180.069 87.8863 179.554 87.7269 178.932 87.7269C178.463 87.7269 178.069 87.8028 177.75 87.9546C177.432 88.0912 177.19 88.296 177.023 88.5692C176.856 88.8424 176.773 89.1838 176.773 89.5936C176.773 89.9275 176.864 90.2993 177.046 90.709C177.243 91.1036 177.485 91.5058 177.773 91.9155C178.061 92.3253 178.356 92.7047 178.66 93.0537C178.963 93.4028 179.228 93.7063 179.455 93.9643L182.614 97.4927L183.273 98.2212L186.524 101.772H183.478ZM177.364 102C176.288 102 175.311 101.772 174.432 101.317C173.553 100.847 172.849 100.232 172.318 99.4732C171.803 98.6992 171.546 97.8569 171.546 96.9464C171.546 95.7475 171.871 94.7079 172.523 93.8277C173.19 92.9475 174.159 92.2722 175.432 91.8017L176.887 93.5545C175.917 93.767 175.197 94.1236 174.727 94.6245C174.258 95.1101 174.023 95.7702 174.023 96.6049C174.023 97.2423 174.174 97.8038 174.477 98.2895C174.781 98.7751 175.212 99.1545 175.773 99.4277C176.349 99.7008 177.031 99.8374 177.819 99.8374C178.5 99.8374 179.122 99.7084 179.682 99.4504C180.258 99.1773 180.773 98.7979 181.228 98.3122C181.682 97.8266 182.054 97.2423 182.342 96.5594C182.645 95.8765 182.864 95.1177 183.001 94.283H185.092C184.97 95.2087 184.751 96.0662 184.433 96.8553C184.13 97.6445 183.743 98.3578 183.273 98.9951C182.819 99.6325 182.289 100.179 181.682 100.634C181.091 101.074 180.432 101.416 179.705 101.659C178.978 101.886 178.197 102 177.364 102Z" fill="#E5E8CA"/>
<path d="M201.923 101.772L196.854 85.8375H199.468L202.537 95.8082C202.627 96.051 202.711 96.3393 202.787 96.6732C202.862 96.9919 202.93 97.3182 202.991 97.6521C203.052 97.9859 203.105 98.297 203.15 98.5854C203.211 98.8737 203.264 99.109 203.309 99.2911L202.65 99.2683C202.877 98.464 203.052 97.8418 203.173 97.4017C203.309 96.9616 203.415 96.6277 203.491 96.4C203.567 96.1572 203.635 95.9524 203.696 95.7854L206.559 88.592H208.764L211.537 95.7854C211.689 96.1496 211.817 96.5139 211.923 96.8781C212.045 97.2271 212.151 97.5838 212.242 97.948C212.333 98.297 212.431 98.6689 212.537 99.0634L211.946 99.2228C212.022 98.813 212.075 98.4943 212.105 98.2667C212.151 98.0239 212.189 97.8266 212.219 97.6748C212.249 97.5231 212.279 97.3789 212.31 97.2423C212.34 97.0906 212.386 96.9008 212.446 96.6732C212.522 96.4456 212.62 96.1345 212.742 95.7399L215.765 85.8375H218.401L213.333 101.772H211.628L207.423 91.8017L207.628 91.8928L203.582 101.772H201.923Z" fill="#E5E8CA"/>
<path d="M222.54 101.772V85.8375H232.563V88.205H224.994V99.4049H232.563V101.772H222.54ZM223.653 94.7838V92.4163H231.313V94.7838H223.653Z" fill="#E5E8CA"/>
<path d="M237.865 101.772V85.8375H244.501C245.517 85.8375 246.373 85.9893 247.07 86.2928C247.767 86.5963 248.289 87.0516 248.638 87.6586C249.002 88.2505 249.183 88.979 249.183 89.844C249.183 90.709 248.941 91.4451 248.456 92.0521C247.986 92.6592 247.327 93.0765 246.479 93.3041V92.8489C247.191 93.0006 247.812 93.2738 248.342 93.6684C248.873 94.0478 249.282 94.5258 249.57 95.1025C249.873 95.6792 250.024 96.3393 250.024 97.083C250.024 97.8418 249.903 98.5171 249.661 99.109C249.433 99.6857 249.085 100.171 248.615 100.566C248.161 100.96 247.608 101.264 246.956 101.476C246.304 101.674 245.562 101.772 244.729 101.772H237.865ZM240.319 99.4049H244.592C245.213 99.4049 245.736 99.3138 246.16 99.1317C246.6 98.9496 246.933 98.684 247.161 98.335C247.403 97.9708 247.524 97.5382 247.524 97.0374C247.524 96.567 247.395 96.1648 247.138 95.8309C246.895 95.4971 246.547 95.2467 246.092 95.0797C245.638 94.8976 245.1 94.8066 244.479 94.8066H240.319V99.4049ZM240.319 92.4391H244.365C244.82 92.4391 245.221 92.348 245.57 92.1659C245.933 91.9838 246.214 91.7334 246.411 91.4147C246.623 91.096 246.729 90.7318 246.729 90.322C246.729 89.6391 246.501 89.1155 246.047 88.7513C245.592 88.3871 244.941 88.205 244.092 88.205H240.319V92.4391Z" fill="#E5E8CA"/>
<path d="M254.699 101.772V85.8375H260.926C262.063 85.8375 263.086 86.0272 263.995 86.4066C264.919 86.786 265.707 87.3324 266.359 88.0456C267.01 88.7589 267.51 89.6012 267.859 90.5724C268.207 91.5437 268.381 92.6212 268.381 93.8049C268.381 94.9887 268.207 96.0738 267.859 97.0602C267.51 98.0315 267.01 98.8737 266.359 99.587C265.722 100.285 264.942 100.824 264.017 101.203C263.093 101.583 262.063 101.772 260.926 101.772H254.699ZM257.153 99.6553L257.085 99.4049H260.813C261.616 99.4049 262.328 99.2759 262.949 99.0179C263.586 98.7599 264.116 98.3957 264.54 97.9252C264.98 97.4396 265.313 96.8477 265.54 96.1496C265.768 95.4515 265.881 94.67 265.881 93.8049C265.881 92.9399 265.768 92.1659 265.54 91.483C265.313 90.7849 264.98 90.193 264.54 89.7074C264.101 89.2218 263.571 88.85 262.949 88.592C262.328 88.334 261.616 88.205 260.813 88.205H257.017L257.153 88.0001V99.6553Z" fill="#E5E8CA"/>
<path d="M273.064 101.772V85.8375H283.088V88.205H275.519V99.4049H283.088V101.772H273.064ZM274.178 94.7838V92.4163H281.838V94.7838H274.178Z" fill="#E5E8CA"/>
<path d="M293.071 101.772L286.707 85.8375H289.503L293.299 95.5123C293.481 95.9827 293.64 96.4076 293.776 96.787C293.928 97.1664 294.056 97.5155 294.162 97.8342C294.268 98.1377 294.367 98.426 294.458 98.6992C294.549 98.9724 294.64 99.2455 294.731 99.5187L294.14 99.5415C294.246 99.1773 294.359 98.7979 294.481 98.4033C294.602 98.0087 294.738 97.5762 294.89 97.1057C295.056 96.6353 295.253 96.1041 295.481 95.5123L299.004 85.8375H301.867L295.458 101.772H293.071Z" fill="#E5E8CA"/>
</svg>
